# xmcd
#
# Track frame offsets:
#	150
#	19375
#	34402
#	49924
#	67516
#	88573
#	106025
#	123906
#	140693
#	154592
#	176929
#	192241
#	208676
#	225835
#
# Disc length: 3270 seconds
#
# Revision: 0
# Processed by: cddbd v1.5.1PL0 Copyright (c) Steve Scherf et al.
# Submitted via: audiograbber 1.83.01
#
DISCID=b60cc40e
DTITLE=McGraw, Tim - A Place In The Sun - McGraw, Tim - A Place In The Sun
DYEAR=2000
DGENRE=Country
TTITLE0=The Trouble With Never
TTITLE1=Seventeen
TTITLE2=She'll Have You Back
TTITLE3=Somebody Must Be Prayin' For Me
TTITLE4=My Best Friend
TTITLE5=Senorita Margarita
TTITLE6=Some Things Never Change
TTITLE7=You Don't Love Me Anymore
TTITLE8=Something Like That
TTITLE9=Please Remember Me
TTITLE10=Carry On
TTITLE11=My Next Thirty Years
TTITLE12=Eyes Of A Woman
TTITLE13=A Place In The Sun
EXTD=
EXTT0=
EXTT1=
EXTT2=
EXTT3=
EXTT4=
EXTT5=
EXTT6=
EXTT7=
EXTT8=
EXTT9=
EXTT10=
EXTT11=
EXTT12=
EXTT13=
PLAYORDER=
